<?xml version="1.0" encoding="UTF-8"?>
<svg width="501px" height="118px" viewBox="0 0 501 118" version="1.1" xmlns="http://www.w3.org/2000/svg" xmlns:xlink="http://www.w3.org/1999/xlink">
    <title>logo</title>
    <defs>
        <linearGradient x1="0%" y1="49.997219%" x2="100%" y2="49.997219%" id="linearGradient-1">
            <stop stop-color="#FFFA5C" offset="0%"></stop>
            <stop stop-color="#FF4355" offset="25.098%"></stop>
            <stop stop-color="#785AFF" offset="50.1961%"></stop>
            <stop stop-color="#00A2FF" offset="74.902%"></stop>
            <stop stop-color="#31F5DC" offset="100%"></stop>
        </linearGradient>
    </defs>
    <g id="Page-1" stroke="none" stroke-width="1" fill="none" fill-rule="evenodd">
        <g id="logo" transform="translate(0.733000, 0.277400)" fill-rule="nonzero">
            <path d="M45.4346052,36.2603605 L45.4346052,36.0419331 C50.8954961,32.7653749 53.8443984,27.6321398 53.8443984,20.5329699 C53.8443984,8.3005648 44.3424093,3.55271368e-14 26.8675407,3.55271368e-14 L4.80552017,3.55271368e-14 C2.73038636,3.55271368e-14 0.982908362,1.74750754 0.982908362,3.93184026 L0.982908362,72.5207209 C0.982908362,74.7050832 2.73038636,76.4525612 4.80552017,76.4525612 L29.7072146,76.4525612 C47.2913116,76.4525612 56.7932712,67.8243406 56.7932712,54.3905407 C56.7932712,45.8715485 52.7522025,39.6461175 45.4346052,36.2603605 L45.4346052,36.2603605 Z M26.8675407,12.7785178 C33.311399,12.7785178 38.9907468,15.072079 38.9907468,22.0620205 C38.9907468,29.1611905 33.6390548,31.782437 26.8675407,31.782437 L15.7273315,31.782437 L15.7273315,12.7785178 L26.8675407,12.7785178 Z M29.7072146,63.6740729 L15.7273315,63.6740729 L15.7273315,43.5779578 L29.7072146,43.5779578 C36.2603014,43.5779578 41.7211923,46.1992043 41.7211923,53.4075732 C41.7211923,60.1790874 36.6971561,63.6740729 29.7072146,63.6740729 Z M107.470399,21.0790826 C105.395236,21.0790826 103.647758,22.8265606 103.647758,25.0109228 L103.647758,51.8785226 C103.647758,58.3223809 100.043573,64.3293846 91.8522369,64.3293846 C84.0977552,64.3293846 81.039654,58.9776926 81.039654,51.8785226 L81.039654,25.0109228 C81.039654,22.8265606 79.2921464,21.0790826 77.2170126,21.0790826 L71.1008101,21.0790826 C69.0256763,21.0790826 67.2781983,22.8265606 67.2781983,25.0109228 L67.2781983,54.827425 C67.2781983,66.5137173 73.6128282,77.7631844 87.5927112,77.7631844 C95.5656202,77.7631844 100.589656,74.1589704 103.647758,69.681047 L103.647758,72.5207209 C103.647758,74.7050832 105.395236,76.4525612 107.470399,76.4525612 L113.586602,76.4525612 C115.770964,76.4525612 117.518442,74.7050832 117.518442,72.5207209 L117.518442,25.0109228 C117.518442,22.8265606 115.770964,21.0790826 113.586602,21.0790826 L107.470399,21.0790826 L107.470399,21.0790826 Z M164.591356,24.3556112 L152.577378,57.5578704 L139.689661,24.2463828 C138.925121,22.2804774 137.177643,21.0790826 135.102509,21.0790826 L128.003339,21.0790826 C125.818977,21.0790826 124.399155,23.2634153 125.272894,25.2293502 C130.624586,37.1340995 145.696635,71.3193261 146.461175,73.1760325 C143.403074,82.4595352 140.126545,85.9545208 134.337969,86.1729481 C132.808919,86.2821766 131.607524,87.5927999 131.607524,89.1218505 L131.607524,94.364314 C131.607524,95.7841362 132.69972,97.0947595 134.119542,97.2039584 C135.320937,97.4224153 136.522331,97.5316142 137.505299,97.5316142 C148.645538,97.5316142 153.560345,89.3402779 158.802809,76.4525612 C161.642453,69.4626196 174.639398,36.5880163 179.22655,25.1201218 C179.99109,23.1542164 178.571239,21.0790826 176.496105,21.0790826 L169.178507,21.0790826 C167.103374,21.0790826 165.355866,22.3896763 164.591356,24.3556112 Z M215.159255,0 L193.42489,0 C191.240528,0 189.49305,1.74750754 189.49305,3.93184026 L189.49305,72.5207209 C189.49305,74.7050832 191.240528,76.4525612 193.42489,76.4525612 L200.414832,76.4525612 C202.599194,76.4525612 204.346672,74.7050832 204.346672,72.5207209 L204.346672,52.7522616 L215.159255,52.7522616 C233.289435,52.7522616 244.429674,42.2673345 244.429674,26.430745 C244.429674,10.5941555 233.289435,0 215.159255,0 L215.159255,0 Z M215.159255,38.9908059 L204.346672,38.9908059 L204.346672,13.7614557 L215.159255,13.7614557 C224.115131,13.7614557 229.357595,18.3486076 229.357595,26.430745 C229.357595,34.403654 224.115131,38.9908059 215.159255,38.9908059 Z M268.566828,27.8505672 L268.566828,3.93184026 C268.566828,1.74750754 266.928549,9.9475983e-14 264.744187,9.9475983e-14 L258.627984,9.9475983e-14 C256.55285,9.9475983e-14 254.805372,1.74750754 254.805372,3.93184026 L254.805372,72.5207209 C254.805372,74.7050832 256.55285,76.4525612 258.627984,76.4525612 L264.744187,76.4525612 C266.928549,76.4525612 268.566828,74.7050832 268.566828,72.5207209 L268.566828,45.6530916 C268.566828,39.2092333 272.171013,33.2022592 280.362349,33.2022592 C288.226059,33.2022592 291.174932,38.5539512 291.174932,45.6530916 L291.174932,72.5207209 C291.174932,74.7050832 292.92241,76.4525612 295.106772,76.4525612 L301.113776,76.4525612 C303.298138,76.4525612 305.045616,74.7050832 305.045616,72.5207209 L305.045616,42.8134473 C305.045616,31.0178969 298.710957,19.7684593 284.731073,19.7684593 C276.648936,19.7684593 271.624929,23.3726438 268.566828,27.8505672 Z M344.036392,19.7684593 C327.435263,19.7684593 314.875202,32.5469476 314.875202,48.8204213 C314.875202,64.9846667 327.435263,77.8723833 344.036392,77.8723833 C360.74675,77.8723833 373.306811,64.9846667 373.306811,48.8204213 C373.306811,32.5469476 360.74675,19.7684593 344.036392,19.7684593 L344.036392,19.7684593 Z M344.036392,64.5478119 C334.862089,64.5478119 329.073542,57.4486419 329.073542,48.8204213 C329.073542,40.1922007 334.862089,33.0930307 344.036392,33.0930307 C353.319925,33.0930307 359.108471,40.1922007 359.108471,48.8204213 C359.108471,57.4486419 353.319925,64.5478119 344.036392,64.5478119 L344.036392,64.5478119 Z M413.062128,19.7684593 C404.97999,19.7684593 399.955984,23.3726438 396.897882,27.8505672 L396.897882,25.0109228 C396.897882,22.8265606 395.150375,21.0790826 393.075241,21.0790826 L386.959038,21.0790826 C384.883905,21.0790826 383.136427,22.8265606 383.136427,25.0109228 L383.136427,72.5207209 C383.136427,74.7050832 384.883905,76.4525612 386.959038,76.4525612 L393.075241,76.4525612 C395.150375,76.4525612 396.897882,74.7050832 396.897882,72.5207209 L396.897882,45.6530916 C396.897882,39.2092333 400.502067,33.2022592 408.693403,33.2022592 C416.557113,33.2022592 419.505986,38.5539512 419.505986,45.6530916 L419.505986,72.5207209 C419.505986,74.7050832 421.253464,76.4525612 423.437826,76.4525612 L429.44483,76.4525612 C431.629192,76.4525612 433.37667,74.7050832 433.37667,72.5207209 L433.37667,42.8134473 C433.37667,31.0178969 427.042011,19.7684593 413.062128,19.7684593 Z M471.493708,19.7684593 C456.203201,19.7684593 443.206256,31.4547812 443.206256,48.8204213 C443.206256,65.6399783 455.329462,77.7631844 473.67807,77.7631844 C482.524718,77.7631844 489.951544,74.2681989 494.757123,69.4626196 C496.067746,68.0427679 495.849319,65.8584352 494.21104,64.8754677 L487.985609,61.1620548 C486.893442,60.5067432 485.582819,60.6159717 484.599852,61.4897107 C482.415489,63.3464171 478.702106,65.4215509 473.67807,65.4215509 C466.032817,65.4215509 459.916614,61.4897107 457.950679,54.1721133 L495.412434,54.1721133 C497.487568,54.1721133 499.235076,52.4246058 499.235076,50.349472 C499.999586,30.7994696 487.221098,19.7684593 471.493708,19.7684593 L471.493708,19.7684593 Z M457.950679,43.4687589 C459.588958,36.3695889 464.940621,32.1100928 471.712135,32.1100928 C479.138961,32.1100928 484.053768,36.151132 485.47362,43.4687589 L457.950679,43.4687589 Z" id="Shape" fill="#FFFFFF"></path>
            <rect id="Rectangle" fill="url(#linearGradient-1)" x="0" y="103.169806" width="500" height="13.8111211"></rect>
        </g>
    </g>
</svg>